<mxfile host="app.diagrams.net" modified="2023-04-13T15:45:56.371Z" agent="Mozilla/5.0 (X11; Ubuntu; Linux x86_64; rv:109.0) Gecko/20100101 Firefox/111.0" etag="SQD50xew9yr2spK0-OPQ" version="21.1.0" type="device">
  <diagram id="cDVfgWAQNz-CeIBkBuRa" name="Page-1">
    <mxGraphModel dx="1600" dy="795" grid="1" gridSize="10" guides="1" tooltips="1" connect="1" arrows="1" fold="1" page="1" pageScale="1" pageWidth="850" pageHeight="1100" math="0" shadow="0">
      <root>
        <mxCell id="0" />
        <mxCell id="1" parent="0" />
        <mxCell id="1NGQ5HVP3o7H2dGWP4o_-1" value="" style="whiteSpace=wrap;html=1;aspect=fixed;" parent="1" vertex="1">
          <mxGeometry x="250" y="100" width="380" height="380" as="geometry" />
        </mxCell>
        <mxCell id="1NGQ5HVP3o7H2dGWP4o_-25" value="View Plan" style="ellipse;whiteSpace=wrap;html=1;" parent="1" vertex="1">
          <mxGeometry x="385" y="230" width="100" height="50" as="geometry" />
        </mxCell>
        <mxCell id="1NGQ5HVP3o7H2dGWP4o_-26" value="Share Plan" style="ellipse;whiteSpace=wrap;html=1;" parent="1" vertex="1">
          <mxGeometry x="385" y="290" width="100" height="50" as="geometry" />
        </mxCell>
        <mxCell id="1NGQ5HVP3o7H2dGWP4o_-27" value="Become Guide" style="ellipse;whiteSpace=wrap;html=1;" parent="1" vertex="1">
          <mxGeometry x="385" y="350" width="100" height="50" as="geometry" />
        </mxCell>
        <mxCell id="1NGQ5HVP3o7H2dGWP4o_-29" value="View Guide" style="ellipse;whiteSpace=wrap;html=1;" parent="1" vertex="1">
          <mxGeometry x="390" y="410" width="100" height="50" as="geometry" />
        </mxCell>
        <mxCell id="1NGQ5HVP3o7H2dGWP4o_-33" value="" style="endArrow=none;html=1;" parent="1" target="1NGQ5HVP3o7H2dGWP4o_-25" edge="1">
          <mxGeometry width="50" height="50" relative="1" as="geometry">
            <mxPoint x="100" y="250" as="sourcePoint" />
            <mxPoint x="450" y="370" as="targetPoint" />
          </mxGeometry>
        </mxCell>
        <mxCell id="1NGQ5HVP3o7H2dGWP4o_-34" value="" style="endArrow=none;html=1;entryX=0;entryY=0.5;entryDx=0;entryDy=0;" parent="1" target="1NGQ5HVP3o7H2dGWP4o_-26" edge="1">
          <mxGeometry width="50" height="50" relative="1" as="geometry">
            <mxPoint x="100" y="250" as="sourcePoint" />
            <mxPoint x="450" y="370" as="targetPoint" />
          </mxGeometry>
        </mxCell>
        <mxCell id="1NGQ5HVP3o7H2dGWP4o_-35" value="" style="endArrow=none;html=1;entryX=0;entryY=0.5;entryDx=0;entryDy=0;" parent="1" target="1NGQ5HVP3o7H2dGWP4o_-27" edge="1">
          <mxGeometry width="50" height="50" relative="1" as="geometry">
            <mxPoint x="100" y="250" as="sourcePoint" />
            <mxPoint x="450" y="370" as="targetPoint" />
          </mxGeometry>
        </mxCell>
        <mxCell id="1NGQ5HVP3o7H2dGWP4o_-36" value="" style="endArrow=none;html=1;entryX=0;entryY=0.5;entryDx=0;entryDy=0;" parent="1" target="1NGQ5HVP3o7H2dGWP4o_-29" edge="1">
          <mxGeometry width="50" height="50" relative="1" as="geometry">
            <mxPoint x="100" y="250" as="sourcePoint" />
            <mxPoint x="450" y="370" as="targetPoint" />
          </mxGeometry>
        </mxCell>
        <mxCell id="g1zkCHLIMRCnzy4LWEic-1" value="Human User" style="shape=umlActor;verticalLabelPosition=bottom;verticalAlign=top;html=1;" vertex="1" parent="1">
          <mxGeometry x="60" y="225" width="30" height="60" as="geometry" />
        </mxCell>
      </root>
    </mxGraphModel>
  </diagram>
</mxfile>
